<?xml version="1.0" encoding="utf-8"?>
<!-- Svg Vector Icons : http://www.onlinewebfonts.com/icon -->
<!DOCTYPE svg PUBLIC "-//W3C//DTD SVG 1.1//EN" "http://www.w3.org/Graphics/SVG/1.1/DTD/svg11.dtd">
<svg version="1.1" xmlns="http://www.w3.org/2000/svg" xmlns:xlink="http://www.w3.org/1999/xlink" x="0px" y="0px" viewBox="0 0 256 256" enable-background="new 0 0 256 256" xml:space="preserve">
<metadata> Svg Vector Icons : http://www.onlinewebfonts.com/icon </metadata>
<g><g><g><path fill="#e55b21" d="M108.5,10.7c-11.9,1.9-23.3,7.3-29.6,14.2c-6.9,7.6-11,19.6-9.3,27.4c0.8,4,2.9,7.8,6.2,11.3c3.8,4.1,8.6,7.5,18.5,13.2c11.3,6.6,16.1,9.9,20.6,14.4c8.6,8.6,10.7,17.8,7,31.1c-1.4,4.9-1.5,5-4,5.1c-2.4,0.1-5.9,1.8-6.9,3.5c-0.7,1-5.2,13.4-5,13.6c0.4,0.3,19.1,6.6,19.6,6.6c0.8,0,4.6-11.3,4.6-13.8c0-2.6-1-4.7-3.1-6.6l-1.8-1.6l1.2-4c1.7-5.7,2.2-9.2,2.2-14.3c0-7.9-2.1-13.9-7.1-20.2c-4.4-5.7-10.1-9.9-26.1-19.3c-15.4-9-20.3-14.2-20.9-21.8c-0.3-4.4,0.6-8.1,3.3-13.6c5.3-10.5,16-17.4,31-19.8c9.3-1.5,20.5-0.6,29.2,2.2c20.6,6.8,33.6,22.7,38.5,46.4c1,5,1.1,6.8,1.1,18.7c0,12.4-0.1,13.8-1.6,22.7c-0.9,5.2-1.8,11.6-2,14.2c-0.4,3.8-1.5,19.4-1.5,22.6c0,0.4-0.9,1.2-2.2,1.9c-1.4,0.7-2.7,1.9-3.5,3.1c-1.3,1.9-1.3,2.3-1.5,9.2l-0.1,7.2H176h10.8v-6.7c0-5.8-0.1-6.9-1-8.8c-1.2-2.3-3.7-4.3-6.2-4.8l-1.6-0.3l0.3-6.4c0.2-3.5,0.5-9,0.8-12.3c0.5-5.7,0.9-8.6,2.9-22c1.3-8.1,1.8-24,1-31.3c-2.7-25.9-14.7-44.9-34.7-55C136.9,11,121.6,8.7,108.5,10.7z"/><path fill="rgb(225,97,32)" d="M102.9,153.1c-9.4,26.7-21,61.7-21,63.3c0,4.2,2.2,7,7.2,8.8c5.2,2,9.6,0.9,12.2-2.8c0.9-1.3,22.2-62.6,22.2-63.9c0-0.3-15.6-6-19.3-7C103.6,151.5,103.2,152.2,102.9,153.1z"/><path fill="#e55b21" d="M165.3,205.3c0,33.4,0,33.8,1,35.9c0.6,1.3,1.9,2.6,3,3.4c1.8,1.2,2.4,1.3,6.7,1.3c4.3,0,4.9-0.1,6.7-1.3c1.2-0.8,2.4-2.1,3-3.4c1-2.1,1-2.5,1-35.9v-33.8h-10.7h-10.7V205.3L165.3,205.3z"/></g></g></g>
</svg>