<?xml version="1.0" encoding="utf-8"?>
<!-- Svg Vector Icons : http://www.onlinewebfonts.com/icon -->
<!DOCTYPE svg PUBLIC "-//W3C//DTD SVG 1.1//EN" "http://www.w3.org/Graphics/SVG/1.1/DTD/svg11.dtd">
<svg version="1.1" xmlns="http://www.w3.org/2000/svg" xmlns:xlink="http://www.w3.org/1999/xlink" x="0px" y="0px" viewBox="0 0 256 256" enable-background="new 0 0 256 256" xml:space="preserve">
<metadata> Svg Vector Icons : http://www.onlinewebfonts.com/icon </metadata>
<g><g><g><path fill="rgb(225,97,32)" d="M196.4,246H59.7c-8.4,0-15.2-6.8-15.2-15.1v-183c0-8.4,6.8-15.1,15.2-15.1h38v15.8H67.3c-4.2,0-7.6,3.4-7.6,7.6v167.2c0,4.2,3.4,7.6,7.6,7.6h121.5c4.2,0,7.6-3.4,7.6-7.6V56.1c0-4.2-3.4-7.6-7.6-7.6h-30.4V32.7h38c8.4,0,15.2,6.8,15.2,15.1v182.9C211.5,239.2,204.7,246,196.4,246z M97.6,94h83.5v7.6H97.6V94z M97.6,116.7h83.5v7.6H97.6V116.7z M97.6,139.5h83.5v7.6H97.6V139.5z M97.6,162.2h83.5v7.6H97.6V162.2z M181.2,215.2H97.6v-7.6h83.5V215.2L181.2,215.2z M97.6,184.9h83.5v7.6H97.6V184.9z M74.9,93.8h7.6v7.6h-7.6V93.8z M74.9,116.6h7.6v7.6h-7.6V116.6z M74.9,139.3h7.6v7.6h-7.6V139.3z M74.9,162h7.6v7.6h-7.6V162z M82.4,215.1h-7.6v-7.6h7.6V215.1z M74.9,184.8h7.6v7.6h-7.6V184.8z M173.6,56.6c4.2,0,7.6,3.4,7.6,7.6s0,14.7,0,14.7H74.9c0,0,0-10.5,0-14.7c0-4.2,3.4-7.6,7.6-7.6h22.8c0,0,0.1-10.8,0.1-23.1c0-12.8,9.9-23.5,22.7-23.5c12.8,0,23,11.2,23,23.6c0,13.3-0.2,23-0.2,23H173.6z M128,32.7c-4.2,0-7.6,3.4-7.6,7.6c0,4.2,3.4,7.6,7.6,7.6c4.2,0,7.6-3.4,7.6-7.6C135.6,36.1,132.2,32.7,128,32.7z"/></g></g></g>
</svg>